<svg width="32" height="32" viewBox="0 0 32 32" fill="none" xmlns="http://www.w3.org/2000/svg">
<path d="M8.5 13.1887H8.51667M16 13.1887H16.0167M23.5 13.1887H23.5167M7.66667 25.3774V29.173C7.66667 30.039 7.66667 30.472 7.84871 30.6943C8.00704 30.8878 8.24712 31.0003 8.5009 31C8.79271 30.9997 9.13945 30.7292 9.83293 30.1882L13.8087 27.0868C14.6209 26.4533 15.0269 26.1365 15.4791 25.9112C15.8803 25.7114 16.3074 25.5653 16.7487 25.477C17.2461 25.3774 17.7662 25.3774 18.8062 25.3774H23C25.8003 25.3774 27.2004 25.3774 28.27 24.846C29.2108 24.3786 29.9757 23.6328 30.455 22.7154C31 21.6725 31 20.3072 31 17.5767V8.80078C31 6.07025 31 4.70499 30.455 3.66206C29.9757 2.74468 29.2108 1.99883 28.27 1.5314C27.2004 1 25.8003 1 23 1H9C6.19974 1 4.79961 1 3.73005 1.5314C2.78924 1.99883 2.02433 2.74468 1.54497 3.66206C1 4.70499 1 6.07025 1 8.80078V18.8768C1 20.3881 1 21.1438 1.17037 21.7638C1.63271 23.4463 2.98044 24.7605 4.7059 25.2113C5.34174 25.3774 6.11671 25.3774 7.66667 25.3774ZM9.33333 13.1887C9.33333 13.6375 8.96024 14.0013 8.5 14.0013C8.03976 14.0013 7.66667 13.6375 7.66667 13.1887C7.66667 12.7399 8.03976 12.3761 8.5 12.3761C8.96024 12.3761 9.33333 12.7399 9.33333 13.1887ZM16.8333 13.1887C16.8333 13.6375 16.4602 14.0013 16 14.0013C15.5398 14.0013 15.1667 13.6375 15.1667 13.1887C15.1667 12.7399 15.5398 12.3761 16 12.3761C16.4602 12.3761 16.8333 12.7399 16.8333 13.1887ZM24.3333 13.1887C24.3333 13.6375 23.9602 14.0013 23.5 14.0013C23.0398 14.0013 22.6667 13.6375 22.6667 13.1887C22.6667 12.7399 23.0398 12.3761 23.5 12.3761C23.9602 12.3761 24.3333 12.7399 24.3333 13.1887Z" stroke="white" stroke-width="2" stroke-linecap="round" stroke-linejoin="round"/>
</svg>
