<svg width="32" height="29" viewBox="0 0 32 29" fill="none" xmlns="http://www.w3.org/2000/svg">
<path d="M22 28V26.0941C22 23.4256 22 22.0914 21.5095 21.0722C21.0781 20.1756 20.3897 19.4467 19.543 18.9899C18.5804 18.4706 17.3202 18.4706 14.8 18.4706H8.2C5.67976 18.4706 4.41965 18.4706 3.45704 18.9899C2.61031 19.4467 1.9219 20.1756 1.49047 21.0722C1 22.0914 1 23.4256 1 26.0941V28M22 4.17647L25 7.35294L31 1M16.75 6.55882C16.75 9.62888 14.3995 12.1176 11.5 12.1176C8.6005 12.1176 6.25 9.62888 6.25 6.55882C6.25 3.48877 8.6005 1 11.5 1C14.3995 1 16.75 3.48877 16.75 6.55882Z" stroke="white" stroke-width="2" stroke-linecap="round" stroke-linejoin="round"/>
</svg>
