<svg width="32" height="32" viewBox="0 0 32 32" fill="none" xmlns="http://www.w3.org/2000/svg">
<path d="M17.7647 1H22.5294C25.4944 1 26.9769 1 28.1094 1.49047C29.1055 1.9219 29.9154 2.61031 30.423 3.45704C31 4.41965 31 5.67976 31 8.2V23.8C31 26.3202 31 27.5804 30.423 28.543C29.9154 29.3897 29.1055 30.0781 28.1094 30.5095C26.9769 31 25.4944 31 22.5294 31H11.2353C8.27031 31 6.78782 31 5.65534 30.5095C4.65919 30.0781 3.8493 29.3897 3.34173 28.543C2.76471 27.5804 2.76471 26.3202 2.76471 23.8V22.75M23.9412 17.5H16M23.9412 11.5H17.7647M23.9412 23.5H9.82353M6.29412 13V4.75C6.29412 3.50736 7.47925 2.5 8.94118 2.5C10.4031 2.5 11.5882 3.50736 11.5882 4.75V13C11.5882 15.4853 9.21798 17.5 6.29412 17.5C3.37026 17.5 1 15.4853 1 13V7" stroke="white" stroke-width="2" stroke-linecap="round" stroke-linejoin="round"/>
</svg>
