<svg width="32" height="32" viewBox="0 0 32 32" fill="none" xmlns="http://www.w3.org/2000/svg">
<path d="M29.2353 16.75V8.2C29.2353 5.67976 29.2353 4.41965 28.6583 3.45704C28.1507 2.61031 27.3408 1.9219 26.3447 1.49047C25.2122 1 23.7297 1 20.7647 1H9.47059C6.5056 1 5.02311 1 3.89064 1.49047C2.89449 1.9219 2.08459 2.61031 1.57702 3.45704C1 4.41965 1 5.67976 1 8.2V23.8C1 26.3202 1 27.5804 1.57702 28.543C2.08459 29.3897 2.89449 30.0781 3.89064 30.5095C5.02311 31 6.5056 31 9.47059 31H15.1176M18.6471 14.5H8.05882M11.5882 20.5H8.05882M22.1765 8.5H8.05882M19.5294 26.5L23.0588 29.5L31 22.75" stroke="white" stroke-width="2" stroke-linecap="round" stroke-linejoin="round"/>
</svg>
