<svg width="20" height="22" viewBox="0 0 20 22" fill="none" xmlns="http://www.w3.org/2000/svg">
<path d="M12.25 1.26953V5.40007C12.25 5.96012 12.25 6.24015 12.3726 6.45406C12.4805 6.64222 12.6526 6.7952 12.8643 6.89108C13.1049 7.00007 13.4199 7.00007 14.05 7.00007H18.6969M14.5 12H5.5M14.5 16H5.5M7.75 8H5.5M12.25 1H6.4C4.50982 1 3.56473 1 2.84278 1.32698C2.20774 1.6146 1.69143 2.07354 1.36785 2.63803C1 3.27976 1 4.11984 1 5.8V16.2C1 17.8802 1 18.7202 1.36785 19.362C1.69143 19.9265 2.20774 20.3854 2.84278 20.673C3.56473 21 4.50982 21 6.4 21H13.6C15.4902 21 16.4353 21 17.1572 20.673C17.7923 20.3854 18.3086 19.9265 18.6321 19.362C19 18.7202 19 17.8802 19 16.2V7L12.25 1Z" stroke="url(#paint0_linear_137_3084)" stroke-width="1.5" stroke-linecap="round" stroke-linejoin="round"/>
<defs>
<linearGradient id="paint0_linear_137_3084" x1="1" y1="11" x2="19" y2="11" gradientUnits="userSpaceOnUse">
<stop stop-color="#CE06D0"/>
<stop offset="1" stop-color="#00DBDE"/>
</linearGradient>
</defs>
</svg>
