<svg width="20" height="18" viewBox="0 0 20 18" fill="none" xmlns="http://www.w3.org/2000/svg">
<path d="M18.55 15L12.5714 9M7.42857 9L1.45003 15M1 4L8.34843 9.71544C8.94348 10.1783 9.24101 10.4097 9.56464 10.4993C9.85051 10.5785 10.1495 10.5785 10.4354 10.4993C10.759 10.4097 11.0565 10.1783 11.6516 9.71544L19 4M5.32 17H14.68C16.1921 17 16.9482 17 17.5258 16.673C18.0338 16.3854 18.4469 15.9265 18.7057 15.362C19 14.7202 19 13.8802 19 12.2V5.8C19 4.11984 19 3.27976 18.7057 2.63803C18.4469 2.07354 18.0338 1.6146 17.5258 1.32698C16.9482 1 16.1921 1 14.68 1H5.32C3.80786 1 3.05179 1 2.47423 1.32698C1.96619 1.6146 1.55314 2.07354 1.29428 2.63803C1 3.27976 1 4.11984 1 5.8V12.2C1 13.8802 1 14.7202 1.29428 15.362C1.55314 15.9265 1.96619 16.3854 2.47423 16.673C3.05179 17 3.80786 17 5.32 17Z" stroke="url(#paint0_linear_137_3097)" stroke-width="1.5" stroke-linecap="round" stroke-linejoin="round"/>
<defs>
<linearGradient id="paint0_linear_137_3097" x1="1" y1="9" x2="19" y2="9" gradientUnits="userSpaceOnUse">
<stop stop-color="#CE06D0"/>
<stop offset="1" stop-color="#00DBDE"/>
</linearGradient>
</defs>
</svg>
