<svg width="22" height="22" viewBox="0 0 22 22" fill="none" xmlns="http://www.w3.org/2000/svg">
<path d="M11 21C16.5228 21 21 16.5228 21 11C21 5.47715 16.5228 1 11 1C5.47715 1 1 5.47715 1 11C1 16.5228 5.47715 21 11 21Z" stroke="url(#paint0_linear_129_8140)" stroke-width="1.5" stroke-linecap="round" stroke-linejoin="round"/>
<path d="M7 13C7 13 8.5 15 11 15C13.5 15 15 13 15 13" stroke="url(#paint1_linear_129_8140)" stroke-width="1.5" stroke-linecap="round" stroke-linejoin="round"/>
<path d="M8 8H8.01" stroke="url(#paint2_linear_129_8140)" stroke-width="1.5" stroke-linecap="round" stroke-linejoin="round"/>
<path d="M14 8H14.01" stroke="url(#paint3_linear_129_8140)" stroke-width="1.5" stroke-linecap="round" stroke-linejoin="round"/>
<defs>
<linearGradient id="paint0_linear_129_8140" x1="1" y1="11" x2="21" y2="11" gradientUnits="userSpaceOnUse">
<stop stop-color="#CE06D0"/>
<stop offset="1" stop-color="#00DBDE"/>
</linearGradient>
<linearGradient id="paint1_linear_129_8140" x1="7" y1="14" x2="15" y2="14" gradientUnits="userSpaceOnUse">
<stop stop-color="#CE06D0"/>
<stop offset="1" stop-color="#00DBDE"/>
</linearGradient>
<linearGradient id="paint2_linear_129_8140" x1="8" y1="8.5" x2="8.01" y2="8.5" gradientUnits="userSpaceOnUse">
<stop stop-color="#CE06D0"/>
<stop offset="1" stop-color="#00DBDE"/>
</linearGradient>
<linearGradient id="paint3_linear_129_8140" x1="14" y1="8.5" x2="14.01" y2="8.5" gradientUnits="userSpaceOnUse">
<stop stop-color="#CE06D0"/>
<stop offset="1" stop-color="#00DBDE"/>
</linearGradient>
</defs>
</svg>
