<svg width="24" height="24" viewBox="0 0 24 24" fill="none" xmlns="http://www.w3.org/2000/svg">
<path d="M23 10.9943V12.0063C22.9986 14.3784 22.2305 16.6864 20.8103 18.5863C19.39 20.4862 17.3936 21.876 15.1189 22.5486C12.8442 23.2211 10.413 23.1404 8.18792 22.3183C5.96285 21.4963 4.06312 19.977 2.77206 17.9871C1.48099 15.9971 0.86777 13.6432 1.02384 11.2762C1.17992 8.90931 2.09693 6.65625 3.63811 4.85308C5.17929 3.0499 7.26206 1.79322 9.57581 1.27046C11.8895 0.747697 14.3103 0.986867 16.477 1.9523M23 3.2L12 14.211L8.7 10.911" stroke="url(#paint0_linear_128_5287)" stroke-width="1.5" stroke-linecap="round" stroke-linejoin="round"/>
<defs>
<linearGradient id="paint0_linear_128_5287" x1="1" y1="12" x2="23" y2="12" gradientUnits="userSpaceOnUse">
<stop stop-color="#CE06D0"/>
<stop offset="1" stop-color="#00DBDE"/>
</linearGradient>
</defs>
</svg>
