<svg width="23" height="23" viewBox="0 0 23 23" fill="none" xmlns="http://www.w3.org/2000/svg">
<path d="M1 22L7.02918 19.6811C7.41481 19.5328 7.60763 19.4586 7.78803 19.3618C7.94827 19.2758 8.10102 19.1765 8.2447 19.065C8.40646 18.9395 8.55254 18.7934 8.8447 18.5012L21.0999 6.246C22.3 5.04591 22.3 3.10017 21.0999 1.90007C19.8998 0.699977 17.9541 0.699976 16.754 1.90007L4.49878 14.1553C4.20661 14.4475 4.06053 14.5935 3.93501 14.7553C3.82352 14.899 3.72424 15.0517 3.63823 15.212C3.5414 15.3924 3.46723 15.5852 3.31891 15.9708L1 22ZM1 22L3.23611 16.1862C3.39612 15.7702 3.47613 15.5621 3.61336 15.4669C3.73328 15.3836 3.88168 15.3521 4.02509 15.3795C4.18918 15.4108 4.34678 15.5684 4.66197 15.8836L7.11643 18.3381C7.43161 18.6532 7.58921 18.8108 7.62054 18.9749C7.64793 19.1183 7.61644 19.2667 7.53317 19.3867C7.43789 19.5239 7.22987 19.6039 6.81384 19.7639L1 22Z" stroke="url(#paint0_linear_128_5349)" stroke-width="1.5" stroke-linecap="round" stroke-linejoin="round"/>
<defs>
<linearGradient id="paint0_linear_128_5349" x1="1" y1="11.5" x2="22" y2="11.5" gradientUnits="userSpaceOnUse">
<stop stop-color="#CE06D0"/>
<stop offset="1" stop-color="#00DBDE"/>
</linearGradient>
</defs>
</svg>
