<svg width="21" height="21" viewBox="0 0 21 21" fill="none" xmlns="http://www.w3.org/2000/svg">
<path d="M7.33333 7.33333L13.6667 13.6667M13.6667 7.33333L7.33333 13.6667M6.06667 20H14.9333C16.7068 20 17.5936 20 18.271 19.6549C18.8668 19.3513 19.3513 18.8668 19.6549 18.271C20 17.5936 20 16.7068 20 14.9333V6.06667C20 4.29317 20 3.40642 19.6549 2.72903C19.3513 2.13318 18.8668 1.64875 18.271 1.34515C17.5936 1 16.7068 1 14.9333 1H6.06667C4.29317 1 3.40642 1 2.72903 1.34515C2.13318 1.64875 1.64875 2.13318 1.34515 2.72903C1 3.40642 1 4.29317 1 6.06667V14.9333C1 16.7068 1 17.5936 1.34515 18.271C1.64875 18.8668 2.13318 19.3513 2.72903 19.6549C3.40642 20 4.29317 20 6.06667 20Z" stroke="url(#paint0_linear_104_4742)" stroke-width="2" stroke-linecap="round" stroke-linejoin="round"/>
<defs>
<linearGradient id="paint0_linear_104_4742" x1="1" y1="10.5" x2="20" y2="10.5" gradientUnits="userSpaceOnUse">
<stop stop-color="#CE06D0"/>
<stop offset="1" stop-color="#00DBDE"/>
</linearGradient>
</defs>
</svg>
