<svg width="17" height="18" viewBox="0 0 17 18" fill="none" xmlns="http://www.w3.org/2000/svg">
<path d="M8.5 11.6667C5.6551 11.6667 3.12516 13.0272 1.51446 15.1386C1.1678 15.5931 0.994465 15.8203 1.00013 16.1274C1.00452 16.3646 1.15493 16.6639 1.34339 16.8104C1.58733 17 1.92537 17 2.60145 17H14.3985C15.0746 17 15.4127 17 15.6566 16.8104C15.8451 16.6639 15.9955 16.3646 15.9999 16.1274C16.0055 15.8203 15.8322 15.5931 15.4855 15.1386C13.8748 13.0272 11.3449 11.6667 8.5 11.6667Z" stroke="#BDBDBD" stroke-width="1.5" stroke-linecap="round" stroke-linejoin="round"/>
<path d="M8.5 9C10.7303 9 12.5384 7.20914 12.5384 5C12.5384 2.79086 10.7303 1 8.5 1C6.26965 1 4.4616 2.79086 4.4616 5C4.4616 7.20914 6.26965 9 8.5 9Z" stroke="#BDBDBD" stroke-width="1.5" stroke-linecap="round" stroke-linejoin="round"/>
</svg>
