<svg width="14" height="17" viewBox="0 0 14 17" fill="none" xmlns="http://www.w3.org/2000/svg">
<path d="M1 1H8.38462C9.36388 1 10.303 1.39509 10.9955 2.09835C11.6879 2.80161 12.0769 3.75544 12.0769 4.75C12.0769 5.74456 11.6879 6.69839 10.9955 7.40165C10.303 8.10491 9.36388 8.5 8.38462 8.5H1V1Z" stroke="#1F1F1F" stroke-width="2" stroke-linecap="round" stroke-linejoin="round"/>
<path d="M1 8.5H9.30769C10.287 8.5 11.2261 8.89509 11.9185 9.59835C12.611 10.3016 13 11.2554 13 12.25C13 13.2446 12.611 14.1984 11.9185 14.9016C11.2261 15.6049 10.287 16 9.30769 16H1V8.5Z" stroke="#1F1F1F" stroke-width="2" stroke-linecap="round" stroke-linejoin="round"/>
</svg>
