<svg width="20" height="20" viewBox="0 0 20 20" fill="none" xmlns="http://www.w3.org/2000/svg">
<path d="M5.72803 13.2584L5.30021 12.6868L1.95 8.21076C1.94994 8.21068 1.94988 8.21061 1.94981 8.21053L5.72803 13.2584ZM5.72803 13.2584L6.11891 12.6609M5.72803 13.2584L6.11891 12.6609M6.11891 12.6609C6.22544 12.4981 6.3413 12.3384 6.47011 12.1815L6.71874 11.8784M6.11891 12.6609L6.71874 11.8784M6.71874 11.8784L6.48384 11.5647M6.71874 11.8784L6.48384 11.5647M6.48384 11.5647L1.83309 5.35203C1.83305 5.35197 1.83301 5.35191 1.83297 5.35185C1.83142 5.34964 1.82785 5.34442 1.82279 5.33651C1.81257 5.32051 1.79693 5.29454 1.77982 5.2609C1.74432 5.19108 1.70958 5.10211 1.69554 5.00906C1.68202 4.91938 1.68882 4.83573 1.72357 4.7565C1.75747 4.67918 1.83494 4.56707 2.02776 4.44599L2.02787 4.44592L6.48384 11.5647ZM7.81248 10.8724L7.5131 10.4724L3.13881 4.62826C3.13875 4.62818 3.13869 4.6281 3.13862 4.62802L7.81248 10.8724ZM7.81248 10.8724L8.21269 10.5733M7.81248 10.8724L8.21269 10.5733M8.21269 10.5733C8.37328 10.4533 8.53518 10.3346 8.7008 10.2189L9.12452 9.9231M8.21269 10.5733L9.12452 9.9231M9.12452 9.9231L8.81489 9.50937L9.12452 9.9231ZM10.3833 9.13542L10.1206 8.78437L5.04908 2.00908C5.04902 2.00901 5.04895 2.00893 5.04888 2.00884L10.3833 9.13542ZM10.3833 9.13542L10.7657 8.9207M10.3833 9.13542L10.7657 8.9207M10.7657 8.9207C10.8918 8.84988 11.013 8.78796 11.1439 8.72112C11.1964 8.69431 11.2504 8.66671 11.3069 8.63742L11.8307 8.36607M10.7657 8.9207L11.8307 8.36607M11.8307 8.36607L11.4772 7.89384M11.8307 8.36607L11.4772 7.89384M11.4772 7.89384L6.73707 1.5613M11.4772 7.89384L6.73707 1.5613M6.73707 1.5613C6.73703 1.56124 6.73699 1.56118 6.73695 1.56112L6.73707 1.5613ZM0.838837 8.02857L0.839068 8.02842L8.04197 0.837291C8.04204 0.837375 8.0421 0.837455 8.04216 0.83753L13.0542 7.53377L13.0543 7.53384L13.5036 8.13437C10.5021 10.3478 10.2831 14.1738 12.1615 16.6838C12.4712 17.098 12.8872 17.1774 13.2036 17.1374C13.3505 17.1189 13.4735 17.0764 13.5575 17.0405C13.6005 17.0222 13.6359 17.0046 13.6622 16.9905C13.6755 16.9834 13.6866 16.9771 13.6954 16.9719L13.707 16.965L13.7115 16.9623L13.7135 16.9611L13.7143 16.9605L13.7148 16.9603C13.715 16.9601 13.7152 16.96 13.4494 16.5365L13.7152 16.96L14.175 16.6715L13.8498 16.2369C12.8368 14.8834 12.5132 13.4891 12.7696 12.2289C13.0265 10.9662 13.8814 9.76318 15.3703 8.82803L15.6677 8.64122L15.5928 8.29807L14.6613 4.02714L14.6568 4.00633L14.6519 3.99051C14.6519 3.99041 14.6518 3.9903 14.6518 3.99018C14.6512 3.9878 14.6497 3.98234 14.6479 3.97417C14.644 3.95684 14.6384 3.92851 14.634 3.89249C14.6249 3.81799 14.6228 3.72468 14.6419 3.63241C14.6603 3.5436 14.6968 3.46143 14.7631 3.39015C14.8287 3.31973 14.9488 3.23263 15.1785 3.17288C15.6056 3.06212 15.8209 3.19854 15.9476 3.3257C16.0221 3.40043 16.0761 3.48513 16.1116 3.554C16.1289 3.58756 16.1406 3.61492 16.1473 3.63182C16.1505 3.63988 16.1525 3.64534 16.1533 3.64769C16.1533 3.64778 16.1533 3.64786 16.1534 3.64794L16.1558 3.65589L16.1603 3.66806L17.2361 6.59487C17.664 7.75929 18.1285 8.94519 18.7484 10.0737C20.3104 12.9173 19.392 16.469 16.4051 18.3462C13.1252 20.4064 8.64853 19.628 6.41938 16.651C6.41936 16.6509 6.41935 16.6509 6.41933 16.6509L0.64426 8.93509C0.644214 8.93502 0.644165 8.93495 0.644114 8.93488C0.642565 8.93266 0.638988 8.92743 0.63392 8.91951C0.623677 8.90349 0.608016 8.87749 0.590885 8.84382C0.555334 8.77394 0.520546 8.68489 0.506484 8.59177C0.492931 8.50202 0.499736 8.41835 0.534486 8.33911C0.568394 8.26179 0.645891 8.14965 0.838837 8.02857ZM3.93802 1.82681L3.93814 1.82674L3.74336 2.73287C3.74368 2.73333 3.74389 2.73363 3.74399 2.73376C3.7441 2.73391 3.74407 2.73387 3.7439 2.73364L3.74323 2.73268C3.74169 2.73046 3.73812 2.72524 3.73306 2.71733C3.72283 2.70133 3.70719 2.67536 3.69008 2.64172C3.65458 2.5719 3.61984 2.48293 3.6058 2.38988C3.59228 2.3002 3.59908 2.21655 3.63383 2.13732C3.66773 2.06 3.74521 1.94789 3.93802 1.82681Z" stroke="url(#paint0_linear_125_3436)"/>
<defs>
<linearGradient id="paint0_linear_125_3436" x1="0" y1="10" x2="20" y2="10" gradientUnits="userSpaceOnUse">
<stop stop-color="#CE06D0"/>
<stop offset="1" stop-color="#00DBDE"/>
</linearGradient>
</defs>
</svg>
