<svg width="22" height="20" viewBox="0 0 22 20" fill="none" xmlns="http://www.w3.org/2000/svg">
<path d="M1 10.05C3.03079 10.2759 4.92428 11.186 6.36911 12.6309C7.81395 14.0757 8.72414 15.9692 8.95 18M1 14.1C1.96089 14.296 2.84294 14.7702 3.53638 15.4636C4.22982 16.157 4.70403 17.0391 4.9 18M1 18H1.01M13 19H16.2C17.8802 19 18.7202 19 19.362 18.673C19.9265 18.3854 20.3854 17.9265 20.673 17.362C21 16.7202 21 15.8802 21 14.2V5.8C21 4.11984 21 3.27976 20.673 2.63803C20.3854 2.07354 19.9265 1.6146 19.362 1.32698C18.7202 1 17.8802 1 16.2 1H5.8C4.11984 1 3.27976 1 2.63803 1.32698C2.07354 1.6146 1.6146 2.07354 1.32698 2.63803C1 3.27976 1 4.11984 1 5.8V6" stroke="url(#paint0_linear_125_3486)" stroke-width="1.5" stroke-linecap="round" stroke-linejoin="round"/>
<defs>
<linearGradient id="paint0_linear_125_3486" x1="1" y1="10" x2="21" y2="10" gradientUnits="userSpaceOnUse">
<stop stop-color="#CE06D0"/>
<stop offset="1" stop-color="#00DBDE"/>
</linearGradient>
</defs>
</svg>
