<svg width="20" height="20" viewBox="0 0 20 20" fill="none" xmlns="http://www.w3.org/2000/svg">
<path d="M4.6 0.999999L4.04399 2.11202C3.80505 2.5899 3.68558 2.82885 3.52597 3.0359C3.38435 3.21963 3.21964 3.38435 3.0359 3.52597C2.82885 3.68558 2.58991 3.80505 2.11203 4.04399L1 4.6L2.11203 5.15601C2.58991 5.39495 2.82885 5.51442 3.0359 5.67403C3.21963 5.81565 3.38435 5.98037 3.52597 6.1641C3.68558 6.37115 3.80505 6.61009 4.04399 7.08797L4.6 8.2L5.15601 7.08797C5.39495 6.61009 5.51442 6.37115 5.67403 6.1641C5.81565 5.98037 5.98037 5.81565 6.1641 5.67403C6.37115 5.51442 6.61009 5.39495 7.08798 5.15601L8.2 4.6L7.08798 4.04399C6.6101 3.80505 6.37115 3.68558 6.1641 3.52597C5.98037 3.38435 5.81565 3.21963 5.67403 3.0359C5.51442 2.82884 5.39495 2.5899 5.15601 2.11202L4.6 0.999999Z" stroke="#1F1F1F" stroke-width="1.5" stroke-linecap="round" stroke-linejoin="round"/>
<path d="M1.9 11.2504C3.07992 13.3201 5.30692 14.7155 7.85985 14.7155C11.646 14.7155 14.7153 11.6463 14.7153 7.8601C14.7153 5.30698 13.3197 3.07985 11.2497 1.9C15.5982 2.31231 19 5.97423 19 10.4307C19 15.1634 15.1634 19 10.4307 19C5.97441 19 2.31262 15.5986 1.9 11.2504Z" stroke="#1F1F1F" stroke-width="1.5" stroke-linecap="round" stroke-linejoin="round"/>
</svg>
