<svg width="20" height="22" viewBox="0 0 20 22" fill="none" xmlns="http://www.w3.org/2000/svg">
<path d="M7.38076 18.3711L7.96802 19.6856C8.1426 20.0768 8.42751 20.4093 8.78819 20.6426C9.14887 20.8759 9.56982 21.0001 10 21C10.4302 21.0001 10.8511 20.8759 11.2118 20.6426C11.5725 20.4093 11.8574 20.0768 12.032 19.6856L12.6192 18.3711C12.8283 17.9047 13.1799 17.5159 13.6241 17.26C14.071 17.0034 14.588 16.8941 15.1012 16.9478L16.5381 17.1C16.9658 17.145 17.3974 17.0656 17.7807 16.8713C18.164 16.6771 18.4824 16.3763 18.6973 16.0056C18.9125 15.635 19.0151 15.2103 18.9925 14.7829C18.9699 14.3555 18.8231 13.9438 18.57 13.5978L17.7193 12.4344C17.4164 12.0171 17.2545 11.5148 17.2571 11C17.257 10.4866 17.4204 9.98635 17.7238 9.57111L18.5745 8.40778C18.8276 8.06175 18.9743 7.65007 18.9969 7.22267C19.0195 6.79528 18.917 6.37054 18.7018 6C18.4868 5.62923 18.1684 5.32849 17.7852 5.13423C17.4019 4.93997 16.9703 4.86053 16.5425 4.90556L15.1056 5.05778C14.5925 5.11141 14.0755 5.00212 13.6285 4.74556C13.1835 4.48825 12.8318 4.09736 12.6237 3.62889L12.032 2.31444C11.8574 1.92317 11.5725 1.59072 11.2118 1.3574C10.8511 1.12408 10.4302 0.99993 10 1C9.56982 0.99993 9.14887 1.12408 8.78819 1.3574C8.42751 1.59072 8.1426 1.92317 7.96802 2.31444L7.38076 3.62889C7.17269 4.09736 6.82094 4.48825 6.37593 4.74556C5.929 5.00212 5.41197 5.11141 4.89884 5.05778L3.45748 4.90556C3.02975 4.86053 2.59809 4.93997 2.21482 5.13423C1.83156 5.32849 1.51316 5.62923 1.29822 6C1.08301 6.37054 0.980476 6.79528 1.00307 7.22267C1.02566 7.65007 1.17241 8.06175 1.4255 8.40778L2.27625 9.57111C2.57965 9.98635 2.74303 10.4866 2.74293 11C2.74303 11.5134 2.57965 12.0137 2.27625 12.4289L1.4255 13.5922C1.17241 13.9382 1.02566 14.3499 1.00307 14.7773C0.980476 15.2047 1.08301 15.6295 1.29822 16C1.51337 16.3706 1.83181 16.6712 2.21502 16.8654C2.59823 17.0596 3.02978 17.1392 3.45748 17.0944L4.89438 16.9422C5.40751 16.8886 5.92454 16.9979 6.37147 17.2544C6.81814 17.511 7.17152 17.902 7.38076 18.3711Z" stroke="url(#paint0_linear_137_3087)" stroke-width="1.5" stroke-linecap="round" stroke-linejoin="round"/>
<path d="M9.99821 14C11.6631 14 13.0127 12.6569 13.0127 11C13.0127 9.34315 11.6631 8 9.99821 8C8.33336 8 6.98373 9.34315 6.98373 11C6.98373 12.6569 8.33336 14 9.99821 14Z" stroke="url(#paint1_linear_137_3087)" stroke-width="1.5" stroke-linecap="round" stroke-linejoin="round"/>
<defs>
<linearGradient id="paint0_linear_137_3087" x1="1" y1="11" x2="19" y2="11" gradientUnits="userSpaceOnUse">
<stop stop-color="#CE06D0"/>
<stop offset="1" stop-color="#00DBDE"/>
</linearGradient>
<linearGradient id="paint1_linear_137_3087" x1="1" y1="11" x2="19" y2="11" gradientUnits="userSpaceOnUse">
<stop stop-color="#CE06D0"/>
<stop offset="1" stop-color="#00DBDE"/>
</linearGradient>
</defs>
</svg>
